<svg xmlns="http://www.w3.org/2000/svg" xmlns:xlink="http://www.w3.org/1999/xlink" version="1.1" x="0px" y="0px" viewBox="0 0 512 640" style="enable-background:new 0 0 512 512;" xml:space="preserve"><g><path d="M432,33.2c0-3.1-1.5-6.1-4-8s-5.8-2.5-8.8-1.6l-251,73.3c-4.3,1.2-7.2,5.2-7.2,9.6v264.6c-10-6-20.8-9.4-32.7-9.4   c-34.5,0-62.6,28.5-62.6,63.6s28.1,63.6,62.6,63.6s62.6-28.5,62.6-63.6c0-12.6-3.9-24.3-9.9-34.2V228.2l231-67.5v86.7   c-9-4.3-18.1-6.8-28.2-6.8c-34.5,0-62.6,28.5-62.6,63.6s28.1,63.6,62.6,63.6s62.6-28.5,62.6-63.6c0-15.4-5.4-29.6-14.4-40.6V33.2z"/></g><text x="0" y="527" fill="#000000" font-size="5px" font-weight="bold" font-family="'Helvetica Neue', Helvetica, Arial-Unicode, Arial, Sans-serif">Created by Olivia</text><text x="0" y="532" fill="#000000" font-size="5px" font-weight="bold" font-family="'Helvetica Neue', Helvetica, Arial-Unicode, Arial, Sans-serif">from the Noun Project</text></svg>